<svg width="100" height="100" viewBox="0 0 100 100" xmlns="http://www.w3.org/2000/svg">
  <defs>
    <pattern id="cattle-pattern" patternUnits="userSpaceOnUse" width="100" height="100">
      <path d="M25 20c1-3 6-6 12-6s11 3 12 6c1 4-2 6-2 6H27s-3-2-2-6z" fill="none" stroke="currentColor" stroke-width="1.5" stroke-opacity="0.15"/>
      <path d="M38 14c-8 0-13 6-13 12 0 2 2 4 2 4 0 16 18 16 32 16 18 0 18-32-8-32-2-2-4-6-10-6-8 0-10 6-12 6z" fill="none" stroke="currentColor" stroke-width="1.5" stroke-opacity="0.15"/>
      <path d="M10 30c-10 2-4 14 0 14 2 0 2-2 2-4 0-2 2-6 0-10zM90 30c10 2 4 14 0 14-2 0-2-2-2-4 0-2-2-6 0-10z" fill="none" stroke="currentColor" stroke-width="1.5" stroke-opacity="0.15"/>
      <path d="M75 28c10 2 4 14 0 14-2 0-2-2-2-4 0-2-2-6 0-10zM25 28c-10 2-4 14 0 14 2 0 2-2 2-4 0-2 2-6 0-10z" fill="none" stroke="currentColor" stroke-width="1.5" stroke-opacity="0.15"/>
      <path d="M18 40c0 4 2 10 6 10s6-6 6-10-2-6-6-6-6 2-6 6z" fill="none" stroke="currentColor" stroke-width="1.5" stroke-opacity="0.15"/>
      <path d="M14 18c-10 2-2 12 2 10 2 0 4-6 2-10zM86 18c10 2 2 12-2 10-2 0-4-6-2-10z" fill="none" stroke="currentColor" stroke-width="1.5" stroke-opacity="0.15"/>
    </pattern>
  </defs>
  <rect width="100" height="100" fill="url(#cattle-pattern)" />
</svg> 