<svg width="100" height="100" viewBox="0 0 100 100" xmlns="http://www.w3.org/2000/svg">
  <defs>
    <pattern id="cultural-texture" patternUnits="userSpaceOnUse" width="100" height="100">
      <!-- Diamond pattern -->
      <path d="M0 25L25 0L50 25L25 50Z" fill="none" stroke="currentColor" stroke-width="1" stroke-opacity="0.1"/>
      <path d="M50 25L75 0L100 25L75 50Z" fill="none" stroke="currentColor" stroke-width="1" stroke-opacity="0.1"/>
      <path d="M0 75L25 50L50 75L25 100Z" fill="none" stroke="currentColor" stroke-width="1" stroke-opacity="0.1"/>
      <path d="M50 75L75 50L100 75L75 100Z" fill="none" stroke="currentColor" stroke-width="1" stroke-opacity="0.1"/>
      
      <!-- Ankole horn motifs -->
      <path d="M15 15C20 10 30 10 35 15" fill="none" stroke="currentColor" stroke-width="1.5" stroke-opacity="0.1"/>
      <path d="M65 15C70 10 80 10 85 15" fill="none" stroke="currentColor" stroke-width="1.5" stroke-opacity="0.1"/>
      <path d="M15 65C20 60 30 60 35 65" fill="none" stroke="currentColor" stroke-width="1.5" stroke-opacity="0.1"/>
      <path d="M65 65C70 60 80 60 85 65" fill="none" stroke="currentColor" stroke-width="1.5" stroke-opacity="0.1"/>
      
      <!-- Small decorative elements -->
      <circle cx="25" cy="25" r="2" fill="currentColor" fill-opacity="0.1"/>
      <circle cx="75" cy="25" r="2" fill="currentColor" fill-opacity="0.1"/>
      <circle cx="25" cy="75" r="2" fill="currentColor" fill-opacity="0.1"/>
      <circle cx="75" cy="75" r="2" fill="currentColor" fill-opacity="0.1"/>
      <circle cx="50" cy="50" r="3" fill="currentColor" fill-opacity="0.1"/>
    </pattern>
  </defs>
  <rect width="100" height="100" fill="url(#cultural-texture)" />
</svg> 